<?xml version="1.0" encoding="iso-8859-1"?>
<!-- Generator: Adobe Illustrator 19.0.0, SVG Export Plug-In . SVG Version: 6.00 Build 0)  -->
<svg version="1.1" id="Layer_1" xmlns="http://www.w3.org/2000/svg" xmlns:xlink="http://www.w3.org/1999/xlink" x="0px" y="0px"
	 viewBox="0 0 350 350" style="enable-background:new 0 0 350 350;" xml:space="preserve">
<g id="XMLID_972_">
	<path id="XMLID_973_" style="fill:#ACABB1;" d="M225,90c0,8.284-6.716,15-15,15H60c-8.284,0-15-6.716-15-15l0,0
		c0-8.284,6.716-15,15-15h150C218.284,75,225,81.716,225,90L225,90z"/>
	<path id="XMLID_974_" style="fill:#BD3C1A;" d="M95,75H60c-8.284,0-15,6.716-15,15s6.716,15,15,15h35V75z"/>
	<path id="XMLID_975_" style="fill:#CDCDD0;" d="M215,90l-5-35c-19.33,0-35,15.67-35,35s15.67,35,35,35L215,90z"/>
	<polygon id="XMLID_976_" style="fill:#FFDA44;" points="265,225 205,225 205,55 235,55 265,145 	"/>
	<path id="XMLID_977_" style="fill:#FFDA44;" d="M257.94,260c4.546-10.759,7.06-22.586,7.06-35c0-49.706-40.294-90-90-90
		s-90,40.294-90,90c0,12.414,2.514,24.241,7.06,35H257.94z"/>
	<path id="XMLID_978_" style="fill:#FFAD41;" d="M175,260c0-22.923,0-45,0-125c-49.706,0-90,40.294-90,90
		c0,12.414,2.514,24.241,7.06,35H175z"/>
	<path id="XMLID_979_" style="fill:#FFE98F;" d="M223.719,260C230.81,250.147,235,238.066,235,225c0-33.137-26.863-60-60-60
		s-60,26.863-60,60c0,13.066,4.189,25.147,11.281,35H223.719z"/>
	<circle id="XMLID_980_" style="fill:#FFDA44;" cx="175" cy="225" r="30"/>
	<path id="XMLID_981_" style="fill:#FFAD41;" d="M175,255c-16.568,0-30-13.432-30-30s13.432-30,30-30"/>
	<circle id="XMLID_982_" style="fill:#BD3C1A;" cx="85" cy="225" r="40"/>
	<circle id="XMLID_983_" style="fill:#FF5023;" cx="265" cy="225" r="40"/>
	<path id="XMLID_984_" style="fill:#91DC5A;" d="M335,225H15c-8.284,0-15,6.716-15,15s6.716,15,15,15h10c0,22.091,17.909,40,40,40
		h220c22.091,0,40-17.909,40-40h10c8.284,0,15-6.716,15-15S343.284,225,335,225z"/>
	<path id="XMLID_985_" style="fill:#64C37D;" d="M175,225H15c-8.284,0-15,6.716-15,15s6.716,15,15,15h10c0,22.091,17.909,40,40,40
		h110V225z"/>
	<path id="XMLID_986_" style="fill:#FFE98F;" d="M235,55v95c0,8.284,6.716,15,15,15s15-6.716,15-15V55H235z"/>
</g>
<g>
</g>
<g>
</g>
<g>
</g>
<g>
</g>
<g>
</g>
<g>
</g>
<g>
</g>
<g>
</g>
<g>
</g>
<g>
</g>
<g>
</g>
<g>
</g>
<g>
</g>
<g>
</g>
<g>
</g>
</svg>
